<svg version="1.2" xmlns="http://www.w3.org/2000/svg" viewBox="0 0 47 32" width="47" height="32"><style>.a{fill:#2ccb69}</style><path class="a" d="m20.9 0v0.8h-2.4v19c0 8.1-3.8 11.4-10.8 11.4-4.7 0-7.7-1.9-7.7-5.2q-0.1-0.8 0.2-1.6 0.3-0.7 0.8-1.3 0.6-0.6 1.3-0.9 0.8-0.3 1.6-0.2c2.6 0 3.7 1.4 3.7 3.3q0 0.3-0.1 0.7 0 0.3-0.1 0.6 0 0.3-0.1 0.5-0.1 0.3-0.2 0.6h-1.7q-0.1 0.1-0.2 0.3-0.1 0.1-0.1 0.3-0.1 0.1-0.1 0.3 0 0.1 0 0.3c0 0.9 0.9 1.5 2.1 1.5 2.4 0 2.8-1.2 2.8-7.4v-22.2h-3.3v-0.8zm17.5 0v1h-4.7v28.8h1.6c5.4 0 7.9-3.9 10.5-9.3h0.9l-0.9 10.3h-23.3v-1h2.6v-28.8h-2.6v-1z"/></svg>